<?xml version="1.0" encoding="utf-8"?>
<!-- Generator: Adobe Illustrator 22.0.1, SVG Export Plug-In . SVG Version: 6.00 Build 0)  -->
<svg version="1.1" id="레이어_1" xmlns="http://www.w3.org/2000/svg" xmlns:xlink="http://www.w3.org/1999/xlink" x="0px"
	 y="0px" viewBox="0 0 500 500" style="enable-background:new 0 0 500 500;" xml:space="preserve">
<style type="text/css">
	.st0{fill:#E6E6E6;}
	.st1{fill:#FFFFFF;}
	.st2{fill:#282828;}
	.st3{fill:#C8C8C8;}
	.st4{fill:#141414;}
	.st5{fill:#8C8C8C;}
	.st6{fill:#3C3C3C;}
	.st7{fill:#B4B4B4;}
	.st8{fill:#646464;}
	.st9{fill:#A0A0A0;}
	.st10{fill:#787878;}
</style>
<polygon class="st0" points="105.7,0 0,0 0,105.7 250,250 "/>
<polygon class="st1" points="250,0 105.7,0 250,250 "/>
<polygon class="st2" points="500,250 500,105.7 250,250 "/>
<polygon class="st3" points="0,105.7 0,250 250,250 "/>
<polygon points="394.3,0 250,0 250,250 "/>
<polygon class="st4" points="500,105.7 500,0 394.3,0 250,250 "/>
<polygon class="st5" points="105.7,500 250,500 250,250 "/>
<polygon class="st6" points="250,250 500,394.3 500,250 "/>
<polygon class="st7" points="0,250 0,394.3 250,250 "/>
<polygon class="st8" points="394.3,500 500,500 500,394.3 250,250 "/>
<polygon class="st9" points="0,394.3 0,500 105.7,500 250,250 "/>
<polygon class="st10" points="250,500 394.3,500 250,250 "/>
</svg>
