<?xml version="1.0" encoding="utf-8"?>
<!-- Generator: Adobe Illustrator 22.0.1, SVG Export Plug-In . SVG Version: 6.00 Build 0)  -->
<svg version="1.1" xmlns="http://www.w3.org/2000/svg" xmlns:xlink="http://www.w3.org/1999/xlink" x="0px" y="0px"
	 viewBox="0 0 100 100" style="enable-background:new 0 0 100 100;" xml:space="preserve">
<style type="text/css">
	.st0{fill:#969696;}
	.st1{fill:none;stroke:#646464;stroke-width:0.25;stroke-miterlimit:10;}
</style>
<g id="레이어_2">
	<g>
		<g>
			<path class="st0" d="M50,40.3l4.9,1.3l3.6,3.6l1.3,4.9l-1.3,4.9l-3.6,3.6L50,59.7l-4.9-1.3l-3.6-3.6L40.3,50l1.3-4.9l3.6-3.6
				L50,40.3 M50,40l-5,1.3L41.3,45L40,50l1.3,5l3.7,3.7l5,1.3l5-1.3l3.7-3.7l1.3-5l-1.3-5L55,41.3L50,40L50,40z"/>
		</g>
		<g>
			<path class="st0" d="M50,30.3l9.9,2.6l7.2,7.2l2.6,9.9l-2.6,9.9l-7.2,7.2L50,69.7l-9.9-2.6l-7.2-7.2L30.3,50l2.6-9.9l7.2-7.2
				L50,30.3 M50,30l-10,2.7L32.7,40L30,50l2.7,10l7.3,7.3L50,70l10-2.7l7.3-7.3L70,50l-2.7-10L60,32.7L50,30L50,30z"/>
		</g>
		<g>
			<path class="st0" d="M50,20.3l14.9,4l10.9,10.9l4,14.9l-4,14.9L64.9,75.8l-14.9,4l-14.9-4L24.2,64.9l-4-14.9l4-14.9l10.9-10.9
				L50,20.3 M50,20l-15,4L24,35l-4,15l4,15l11,11l15,4l15-4l11-11l4-15l-4-15L65,24L50,20L50,20z"/>
		</g>
		<g>
			<path class="st0" d="M50,10.3l19.9,5.3l14.5,14.6L89.7,50l-5.3,19.9L69.9,84.4L50,89.7l-19.9-5.3L15.6,69.9L10.3,50l5.3-19.9
				l14.6-14.5L50,10.3 M50,10l-20,5.4L15.4,30L10,50l5.4,20L30,84.6L50,90l20-5.4L84.6,70L90,50l-5.4-20L70,15.4L50,10L50,10z"/>
		</g>
		<g>
			<path class="st0" d="M50,0.3l24.9,6.7l18.2,18.2L99.7,50l-6.7,24.9L74.9,93.1L50,99.7l-24.9-6.7L6.9,74.9L0.3,50l6.7-24.9
				L25.1,6.9L50,0.3 M50,0L25,6.7L6.7,25L0,50l6.7,25L25,93.3l25,6.7l25-6.7L93.3,75l6.7-25l-6.7-25L75,6.7L50,0L50,0z"/>
		</g>
	</g>
</g>
<g id="레이어_1">
	<line class="st1" x1="50" y1="0" x2="50" y2="100"/>
	<line class="st1" x1="25" y1="6.7" x2="75" y2="93.3"/>
	<line class="st1" x1="6.7" y1="25" x2="93.3" y2="75"/>
	<line class="st1" x1="0" y1="50" x2="100" y2="50"/>
	<line class="st1" x1="6.7" y1="75" x2="93.3" y2="25"/>
	<line class="st1" x1="25" y1="93.3" x2="75" y2="6.7"/>
</g>
</svg>
